<svg xmlns="http://www.w3.org/2000/svg" version="1.1" xmlns:xlink="http://www.w3.org/1999/xlink" xmlns:svgjs="http://svgjs.dev/svgjs" width="1440" height="560" preserveAspectRatio="none" viewBox="0 0 1440 560">
    <g clip-path="url(&quot;#SvgjsClipPath1000&quot;)" fill="none">
        <rect width="1440" height="560" x="0" y="0" fill="#0e2a47"></rect>
        <path d="M33.78 52.48Q37.03 53.37 40.29 54.27 43.54 55.16 46.79 56.05 50.05 56.94 53.3 57.83" stroke="#00ffff" stroke-width="4"></path>
        <path d="M78.02 64.45Q83.06 65.76 88.11 67.08 93.16 68.37 98.2 69.67 103.24 70.94 108.29 72.2" stroke="#4000ff" stroke-width="4"></path>
        <path d="M123.57 75.94Q130.33 77.53 137.1 79.12 143.86 80.65 150.62 82.18 157.39 83.64 164.15 85.1" stroke="#0080ff" stroke-width="4"></path>
        <path d="M196.69 91.5Q200.44 92.18 204.2 92.85 207.95 93.5 211.71 94.14 215.46 94.76 219.22 95.38" stroke="#ff00ff" stroke-width="4"></path>
        <path d="M241.42 98.7Q249.38 99.73 257.34 100.76 265.3 101.65 273.25 102.55 281.21 103.3 289.17 104.04 297.13 104.65 305.09 105.25 313.05 105.7 321.01 106.15 328.96 106.45 336.92 106.75 344.88 106.9 352.84 107.05 360.8 107.04 368.76 107.03 376.72 106.87 384.68 106.71 392.63 106.39 400.59 106.08 408.55 105.61 416.51 105.14" stroke="#0080ff" stroke-width="4"></path>
        <path d="M447.95 102.42Q456.02 101.51 464.09 100.59 472.17 99.53 480.24 98.47 488.31 97.27 496.38 96.08 504.45 94.75 512.52 93.42 520.6 91.97 528.67 90.51 536.74 88.94 544.81 87.37 552.88 85.69 560.96 84.01 569.03 82.23 577.1 80.45" stroke="#00ffff" stroke-width="4"></path>
        <path d="M613.22 71.83Q615.9 71.16 618.59 70.48 621.27 69.8 623.95 69.12 626.64 68.43 629.32 67.74" stroke="#ff0080" stroke-width="4"></path>
        <path d="M667.12 57.71Q675.2 55.5 683.28 53.29 691.36 51.05 699.44 48.81 707.52 46.56 715.61 44.3 723.69 42.05 731.77 39.79 739.85 37.54 747.93 35.3 756.01 33.07 764.09 30.84 772.17 28.64 780.25 26.44 788.33 24.29 796.41 22.13 804.5 20.03 812.58 17.92 820.66 15.88 828.74 13.84 836.82 11.87 844.9 9.9" stroke="#00ffff" stroke-width="4"></path>
        <path d="M880.81 1.77Q888.96 0.08 897.1-1.6 905.25-3.17 913.4-4.74 921.54-6.19 929.69-7.65 937.84-8.97 945.98-10.29 954.13-11.48 962.28-12.66 970.43-13.71 978.57-14.76 986.72-15.66 994.87-16.56 1003.01-17.31 1011.16-18.06" stroke="#8000ff" stroke-width="4"></path>
        <path d="M1033.61-19.62Q1036.8-19.78 1039.98-19.95 1043.17-20.09 1046.36-20.23 1049.54-20.35 1052.73-20.47" stroke="#00ffff" stroke-width="4"></path>
        <path d="M1070.49-20.87Q1078.18-20.89 1085.87-20.9 1093.56-20.78 1101.25-20.65 1108.94-20.38 1116.64-20.11 1124.33-19.69 1132.02-19.28 1139.71-18.73 1147.4-18.18 1155.09-17.48 1162.78-16.79 1170.47-15.97 1178.16-15.14 1185.85-14.18 1193.55-13.23 1201.24-12.14 1208.93-11.06 1216.62-9.85 1224.31-8.65" stroke="#4000ff" stroke-width="4"></path>
        <path d="M1246.96-4.68Q1252.78-3.57 1258.6-2.45 1264.42-1.28 1270.24-0.11 1276.06 1.12 1281.88 2.34" stroke="#00ffff" stroke-width="4"></path>
        <path d="M1312.53 9.29Q1315.75 10.06 1318.98 10.83 1322.2 11.61 1325.42 12.4 1328.65 13.19 1331.87 13.99" stroke="#4000ff" stroke-width="4"></path>
        <path d="M1343.88 17.02Q1349.22 18.39 1354.56 19.77 1359.9 21.17 1365.24 22.57 1370.58 23.99 1375.92 25.41 1381.26 26.86 1386.6 28.3 1391.94 29.76 1397.28 31.22 1402.62 32.69 1407.96 34.16 1413.3 35.64 1418.64 37.12 1423.98 38.61 1429.32 40.1 1434.66 41.59 1440 43.08" stroke="#8000ff" stroke-width="4"></path>
        <path d="M19.47 91.58Q22.31 92.37 25.14 93.16 27.98 93.95 30.82 94.73 33.65 95.52 36.49 96.3" stroke="#4000ff" stroke-width="4"></path>
        <path d="M58.9 102.42Q62.61 103.42 66.32 104.42 70.03 105.41 73.75 106.39 77.46 107.37 81.17 108.35" stroke="#0080ff" stroke-width="4"></path>
        <path d="M97.78 112.64Q105.34 114.53 112.9 116.42 120.46 118.25 128.02 120.07 135.57 121.82 143.13 123.58 150.69 125.25 158.25 126.92 165.81 128.5 173.37 130.08 180.93 131.57 188.49 133.05 196.05 134.44 203.6 135.82 211.16 137.1 218.72 138.37 226.28 139.54 233.84 140.7 241.4 141.74 248.96 142.79 256.52 143.71 264.07 144.63 271.63 145.42 279.19 146.22 286.75 146.88 294.31 147.54" stroke="#00ffff" stroke-width="4"></path>
        <path d="M304.41 148.28Q312.02 148.72 319.63 149.16 327.24 149.47 334.85 149.77 342.46 149.93 350.07 150.09 357.67 150.12 365.28 150.14 372.89 150.02 380.5 149.9 388.11 149.64 395.72 149.38 403.33 148.98 410.94 148.58 418.55 148.04 426.16 147.51 433.77 146.83 441.38 146.16 448.99 145.36 456.59 144.55 464.2 143.62 471.81 142.69 479.42 141.63 487.03 140.57 494.64 139.39 502.25 138.22" stroke="#ff0080" stroke-width="4"></path>
        <path d="M530.59 133.23Q539.82 131.41 549.05 129.59 558.28 127.62 567.52 125.66 576.75 123.57 585.98 121.48 595.21 119.28 604.44 117.07" stroke="#00ffff" stroke-width="4"></path>
        <path d="M623.99 112.19Q632.13 110.08 640.28 107.97 648.42 105.81 656.56 103.64 664.71 101.44 672.85 99.23 680.99 96.99 689.14 94.75 697.28 92.48 705.42 90.22 713.57 87.95 721.71 85.68 729.85 83.41 737.99 81.13 746.14 78.88 754.28 76.62 762.42 74.38 770.57 72.15 778.71 69.95 786.85 67.75 795 65.6 803.14 63.44" stroke="#ff0080" stroke-width="4"></path>
        <path d="M821.92 58.62Q829.88 56.65 837.85 54.68 845.81 52.78 853.78 50.88 861.74 49.07 869.71 47.26 877.67 45.54 885.64 43.82 893.6 42.21 901.56 40.59 909.53 39.09 917.49 37.58 925.46 36.19 933.42 34.8 941.39 33.54 949.35 32.27 957.32 31.14 965.28 30.01" stroke="#ff00ff" stroke-width="4"></path>
        <path d="M975.95 28.64Q982.94 27.83 989.94 27.03 996.93 26.34 1003.93 25.65 1010.92 25.07 1017.92 24.49" stroke="#00ffff" stroke-width="4"></path>
        <path d="M1029.49 23.7Q1033.33 23.48 1037.18 23.27 1041.02 23.09 1044.86 22.9 1048.71 22.76 1052.55 22.61" stroke="#ff0080" stroke-width="4"></path>
        <path d="M1063.96 22.31Q1071.89 22.23 1079.82 22.15 1087.75 22.23 1095.68 22.3 1103.62 22.53 1111.55 22.76 1119.48 23.14 1127.41 23.52" stroke="#4000ff" stroke-width="4"></path>
        <path d="M1167.26 26.74Q1169.11 26.93 1170.96 27.13 1172.8 27.33 1174.65 27.53 1176.5 27.75 1178.35 27.96" stroke="#ff0080" stroke-width="4"></path>
        <path d="M1211.11 32.34Q1220.33 33.82 1229.56 35.3 1238.78 36.95 1248 38.59 1257.23 40.39 1266.45 42.19" stroke="#ff00ff" stroke-width="4"></path>
        <path d="M1294.95 48.3Q1304.68 50.56 1314.41 52.81 1324.14 55.19 1333.87 57.56 1343.6 60.04 1353.33 62.52" stroke="#8000ff" stroke-width="4"></path>
        <path d="M1381.89 70.1Q1385.52 71.09 1389.15 72.07 1392.79 73.06 1396.42 74.06 1400.05 75.06 1403.68 76.05 1407.31 77.06 1410.94 78.06 1414.58 79.07 1418.21 80.08 1421.84 81.09 1425.47 82.1 1429.1 83.11 1432.74 84.13 1436.37 85.14 1440 86.15" stroke="#4000ff" stroke-width="4"></path>
        <path d="M5.77 130.84Q13.34 132.95 20.91 135.06 28.48 137.16 36.05 139.26 43.62 141.33 51.19 143.41 58.75 145.45 66.32 147.49 73.89 149.5 81.46 151.5 89.03 153.46 96.6 155.42 104.17 157.31 111.74 159.21 119.31 161.05 126.88 162.88 134.45 164.64 142.02 166.4 149.59 168.08 157.15 169.76 164.72 171.35 172.29 172.94 179.86 174.43 187.43 175.93 195 177.32 202.57 178.72" stroke="#8000ff" stroke-width="4"></path>
        <path d="M226.49 182.67Q235.18 183.93 243.87 185.19 252.55 186.28 261.24 187.38 269.93 188.31 278.62 189.24 287.3 189.99 295.99 190.75 304.68 191.33 313.37 191.91 322.05 192.31 330.74 192.71" stroke="#8000ff" stroke-width="4"></path>
        <path d="M345.44 193.1Q353.28 193.17 361.13 193.23 368.97 193.14 376.82 193.06 384.66 192.82 392.5 192.59 400.35 192.2 408.19 191.82 416.04 191.29 423.88 190.76 431.72 190.09 439.57 189.41 447.41 188.6 455.25 187.78 463.1 186.83 470.94 185.88 478.79 184.79 486.63 183.71" stroke="#ff0080" stroke-width="4"></path>
        <path d="M510.38 179.94Q518.49 178.5 526.6 177.05 534.71 175.49 542.82 173.93 550.92 172.25 559.03 170.58 567.14 168.8 575.25 167.02 583.36 165.14 591.47 163.27 599.58 161.31 607.68 159.35 615.79 157.32 623.9 155.29 632.01 153.19 640.12 151.09 648.23 148.93 656.34 146.78 664.45 144.58 672.56 142.39 680.66 140.15 688.77 137.92 696.88 135.67 704.99 133.42" stroke="#8000ff" stroke-width="4"></path>
        <path d="M722.38 128.57Q723.99 128.12 725.6 127.67 727.21 127.22 728.83 126.77 730.44 126.32 732.05 125.87" stroke="#0080ff" stroke-width="4"></path>
        <path d="M764.23 116.96Q771.18 115.06 778.13 113.17 785.08 111.31 792.04 109.44 798.99 107.62 805.94 105.79" stroke="#00ffff" stroke-width="4"></path>
        <path d="M837.35 97.87Q845.48 95.94 853.6 94 861.73 92.15 869.85 90.3 877.98 88.55 886.11 86.8 894.23 85.16 902.36 83.51 910.48 81.98 918.61 80.45 926.74 79.05 934.86 77.64 942.99 76.36 951.12 75.09 959.24 73.95 967.37 72.81 975.49 71.81 983.62 70.81" stroke="#8000ff" stroke-width="4"></path>
        <path d="M1022.77 67.22Q1030.34 66.76 1037.92 66.31 1045.49 65.99 1053.07 65.67 1060.64 65.49 1068.21 65.32 1075.79 65.28 1083.36 65.24 1090.93 65.34 1098.51 65.44 1106.08 65.68 1113.66 65.92 1121.23 66.3 1128.8 66.68 1136.38 67.19 1143.95 67.71 1151.53 68.36 1159.1 69 1166.67 69.79 1174.25 70.57 1181.82 71.48 1189.39 72.38 1196.97 73.42 1204.54 74.45 1212.12 75.6 1219.69 76.76" stroke="#00ffff" stroke-width="4"></path>
        <path d="M1231.66 78.74Q1239.22 80.09 1246.77 81.44 1254.33 82.9 1261.88 84.35 1269.44 85.9 1277 87.45 1284.55 89.1 1292.11 90.74 1299.66 92.46 1307.22 94.19 1314.77 95.99 1322.33 97.8 1329.89 99.67 1337.44 101.54 1345 103.47 1352.55 105.4 1360.11 107.38 1367.67 109.37 1375.22 111.39 1382.78 113.42 1390.33 115.48 1397.89 117.54" stroke="#4000ff" stroke-width="4"></path>
        <path d="M19.06 177.62Q27.89 180.07 36.72 182.52 45.55 184.93 54.38 187.35 63.2 189.72 72.03 192.09 80.86 194.41 89.69 196.72" stroke="#00ffff" stroke-width="4"></path>
        <path d="M101.2 199.66Q108.68 201.52 116.15 203.37 123.63 205.16 131.1 206.95 138.58 208.67 146.05 210.39" stroke="#ff0080" stroke-width="4"></path>
        <path d="M173.24 216.21Q180.8 217.7 188.37 219.18 195.93 220.57 203.5 221.96 211.06 223.23 218.62 224.51 226.19 225.68 233.75 226.84 241.32 227.89 248.88 228.93 256.44 229.85 264.01 230.78 271.57 231.57 279.14 232.37 286.7 233.03 294.27 233.69 301.83 234.22 309.39 234.75 316.96 235.15 324.52 235.54 332.09 235.8 339.65 236.06" stroke="#0080ff" stroke-width="4"></path>
        <path d="M373.5 236.2Q381.62 235.98 389.74 235.77 397.85 235.4 405.97 235.02 414.09 234.49 422.21 233.96 430.33 233.28 438.44 232.6 446.56 231.76 454.68 230.92 462.8 229.94 470.92 228.96 479.04 227.83 487.15 226.71 495.27 225.45 503.39 224.18" stroke="#4000ff" stroke-width="4"></path>
        <path d="M542.65 217.04Q550.66 215.38 558.67 213.73 566.69 211.97 574.7 210.22 582.71 208.37 590.72 206.52 598.73 204.59 606.75 202.66 614.76 200.66 622.77 198.65 630.78 196.58 638.8 194.51 646.81 192.39 654.82 190.27" stroke="#00ffff" stroke-width="4"></path>
        <path d="M687.11 181.46Q695.99 178.99 704.88 176.53 713.76 174.05 722.64 171.57 731.52 169.09 740.41 166.62 749.29 164.16 758.17 161.7 767.06 159.27 775.94 156.84" stroke="#8000ff" stroke-width="4"></path>
        <path d="M810.27 147.75Q818.05 145.77 825.83 143.79 833.61 141.88 841.39 139.97 849.17 138.14 856.95 136.3 864.73 134.55 872.51 132.79 880.29 131.13 888.07 129.47 895.85 127.9 903.63 126.34 911.42 124.88 919.2 123.43 926.98 122.08 934.76 120.74 942.54 119.51 950.32 118.28 958.1 117.18 965.88 116.08 973.66 115.11 981.44 114.14 989.22 113.3 997 112.46" stroke="#ff0080" stroke-width="4"></path>
        <path d="M1031.06 109.76Q1038.8 109.38 1046.53 108.99 1054.26 108.75 1062 108.5 1069.73 108.41 1077.47 108.31 1085.2 108.36 1092.94 108.41 1100.67 108.6 1108.41 108.8 1116.14 109.14 1123.88 109.48" stroke="#ff00ff" stroke-width="4"></path>
        <path d="M1161.35 112.3Q1167.72 112.96 1174.1 113.63 1180.47 114.38 1186.84 115.14 1193.22 115.98 1199.59 116.82" stroke="#8000ff" stroke-width="4"></path>
        <path d="M1222.53 120.29Q1230.74 121.69 1238.95 123.09 1247.17 124.62 1255.38 126.15 1263.59 127.8 1271.8 129.44 1280.01 131.2 1288.23 132.96 1296.44 134.81 1304.65 136.67" stroke="#8000ff" stroke-width="4"></path>
        <path d="M1337.23 144.56Q1341.18 145.56 1345.14 146.57 1349.09 147.58 1353.04 148.6 1356.99 149.63 1360.95 150.67 1364.9 151.71 1368.85 152.76 1372.8 153.81 1376.76 154.87 1380.71 155.94 1384.66 157 1388.62 158.08 1392.57 159.16 1396.52 160.24 1400.47 161.32 1404.43 162.41 1408.38 163.51 1412.33 164.6 1416.28 165.7 1420.24 166.8 1424.19 167.9 1428.14 169 1432.09 170.1 1436.05 171.2 1440 172.31" stroke="#0080ff" stroke-width="4"></path>
        <path d="M19.98 220.96Q28.43 223.3 36.88 225.64 45.34 227.95 53.79 230.27 62.24 232.54 70.69 234.81 79.14 237.03 87.6 239.25 96.05 241.41 104.5 243.57" stroke="#ff0080" stroke-width="4"></path>
        <path d="M129.44 249.64Q137.5 251.5 145.56 253.35 153.62 255.12 161.68 256.88 169.74 258.54 177.8 260.2 185.86 261.75 193.92 263.3 201.98 264.73 210.04 266.17" stroke="#ff00ff" stroke-width="4"></path>
        <path d="M223 268.29Q230.86 269.46 238.72 270.63 246.58 271.67 254.44 272.72 262.3 273.62 270.16 274.53 278.02 275.3 285.88 276.07 293.74 276.69 301.6 277.32 309.47 277.8 317.33 278.28 325.19 278.61 333.05 278.94 340.91 279.13 348.77 279.31 356.63 279.34 364.49 279.37 372.35 279.25 380.21 279.14 388.07 278.87 395.93 278.6" stroke="#00ffff" stroke-width="4"></path>
        <path d="M426.83 276.68Q434.42 276.01 442 275.33 449.59 274.52 457.17 273.72 464.76 272.78 472.35 271.85 479.93 270.79 487.52 269.73 495.1 268.55 502.69 267.38" stroke="#4000ff" stroke-width="4"></path>
        <path d="M528.64 262.83Q531.73 262.24 534.81 261.65 537.9 261.05 540.99 260.44 544.07 259.82 547.16 259.2" stroke="#ff00ff" stroke-width="4"></path>
        <path d="M574.81 253.27Q579.04 252.31 583.27 251.34 587.5 250.35 591.74 249.36 595.97 248.35 600.2 247.34" stroke="#8000ff" stroke-width="4"></path>
        <path d="M633.44 238.99Q641.04 236.99 648.65 234.99 656.25 232.95 663.86 230.91 671.46 228.83 679.06 226.76 686.67 224.66 694.27 222.55" stroke="#0080ff" stroke-width="4"></path>
        <path d="M716.24 216.43Q725.05 213.97 733.87 211.52 742.68 209.07 751.49 206.62 760.3 204.2 769.12 201.77 777.93 199.39 786.74 197.01" stroke="#ff00ff" stroke-width="4"></path>
        <path d="M803.48 192.58Q811.4 190.55 819.32 188.51 827.23 186.54 835.15 184.56 843.07 182.66 850.99 180.77 858.9 178.95 866.82 177.13 874.74 175.41 882.66 173.68 890.58 172.05 898.49 170.43 906.41 168.91 914.33 167.39 922.25 165.99 930.16 164.58 938.08 163.3 946 162.02 953.92 160.86 961.83 159.7 969.75 158.68 977.67 157.66" stroke="#00ffff" stroke-width="4"></path>
        <path d="M1006 154.69Q1013.54 154.09 1021.09 153.49 1028.63 153.02 1036.17 152.55 1043.72 152.22 1051.26 151.89 1058.81 151.69 1066.35 151.5 1073.89 151.44 1081.44 151.39 1088.98 151.47 1096.52 151.55 1104.07 151.77 1111.61 151.99 1119.15 152.35 1126.7 152.71 1134.24 153.2 1141.79 153.7 1149.33 154.32 1156.87 154.95 1164.42 155.71 1171.96 156.47" stroke="#4000ff" stroke-width="4"></path>
        <path d="M1188.88 158.47Q1197.43 159.64 1205.99 160.81 1214.55 162.14 1223.1 163.46 1231.66 164.93 1240.21 166.4 1248.77 168 1257.32 169.6 1265.88 171.34 1274.43 173.07 1282.99 174.92 1291.54 176.77 1300.1 178.72 1308.65 180.68" stroke="#00ffff" stroke-width="4"></path>
        <path d="M1324.13 184.39Q1331.37 186.19 1338.61 187.99 1345.86 189.84 1353.1 191.69 1360.34 193.6 1367.58 195.5 1374.82 197.44 1382.07 199.38 1389.31 201.35 1396.55 203.32 1403.79 205.32 1411.03 207.32 1418.27 209.33 1425.52 211.34 1432.76 213.36 1440 215.38" stroke="#4000ff" stroke-width="4"></path>
        <path d="M45.93 271.2Q53.69 273.31 61.45 275.42 69.21 277.49 76.97 279.55 84.73 281.57 92.49 283.59 100.25 285.56 108.01 287.52 115.77 289.42 123.53 291.31 131.29 293.13 139.05 294.95 146.81 296.69 154.57 298.43" stroke="#ff00ff" stroke-width="4"></path>
        <path d="M172.24 302.16Q180.2 303.73 188.16 305.3 196.13 306.76 204.09 308.21 212.05 309.55 220.01 310.89 227.97 312.1 235.93 313.31 243.9 314.39 251.86 315.47 259.82 316.41 267.78 317.35 275.74 318.15 283.7 318.95 291.67 319.6 299.63 320.25 307.59 320.76 315.55 321.26 323.51 321.61 331.47 321.97 339.44 322.17 347.4 322.36 355.36 322.41 363.32 322.45" stroke="#0080ff" stroke-width="4"></path>
        <path d="M389.07 321.95Q396.75 321.61 404.42 321.26 412.1 320.78 419.78 320.3 427.46 319.67 435.13 319.05 442.81 318.3 450.49 317.54 458.16 316.65 465.84 315.76 473.52 314.74 481.2 313.72 488.87 312.58 496.55 311.43" stroke="#8000ff" stroke-width="4"></path>
        <path d="M512.5 308.81Q520.29 307.41 528.08 306.01 535.86 304.5 543.65 302.99 551.44 301.38 559.23 299.76 567.02 298.06 574.81 296.35 582.59 294.55 590.38 292.76 598.17 290.88 605.96 289.01 613.75 287.07 621.53 285.12 629.32 283.11 637.11 281.11 644.9 279.05 652.69 276.99 660.48 274.89 668.26 272.79 676.05 270.65 683.84 268.52" stroke="#ff0080" stroke-width="4"></path>
        <path d="M698.5 264.46Q707.62 261.91 716.74 259.37 725.86 256.83 734.98 254.28 744.1 251.75 753.22 249.22 762.34 246.71 771.46 244.21" stroke="#4000ff" stroke-width="4"></path>
        <path d="M798.56 236.95Q803.54 235.65 808.51 234.35 813.49 233.08 818.47 231.8 823.44 230.55 828.42 229.3" stroke="#ff0080" stroke-width="4"></path>
        <path d="M856.7 222.51Q864.91 220.66 873.12 218.81 881.33 217.07 889.54 215.32 897.74 213.68 905.95 212.05 914.16 210.53 922.37 209.01" stroke="#8000ff" stroke-width="4"></path>
        <path d="M950.65 204.39Q959.4 203.16 968.14 201.93 976.89 200.87 985.63 199.81 994.38 198.92 1003.12 198.03 1011.87 197.31 1020.61 196.6" stroke="#ff0080" stroke-width="4"></path>
        <path d="M1049.52 195.03Q1050.58 194.99 1051.65 194.95 1052.71 194.92 1053.77 194.88 1054.84 194.85 1055.9 194.82" stroke="#0080ff" stroke-width="4"></path>
        <path d="M1084.1 194.47Q1091.87 194.58 1099.65 194.7 1107.42 194.96 1115.2 195.21 1122.97 195.62 1130.75 196.02 1138.52 196.57 1146.29 197.12 1154.07 197.81 1161.84 198.5 1169.62 199.33 1177.39 200.15 1185.16 201.11 1192.94 202.08 1200.71 203.17 1208.49 204.26 1216.26 205.47 1224.04 206.69 1231.81 208.03 1239.58 209.36 1247.36 210.81 1255.13 212.26 1262.91 213.81 1270.68 215.36" stroke="#8000ff" stroke-width="4"></path>
        <path d="M1292.32 220.02Q1300.13 221.8 1307.95 223.59 1315.76 225.46 1323.57 227.33 1331.39 229.27 1339.2 231.21" stroke="#ff0080" stroke-width="4"></path>
        <path d="M1349.78 233.91Q1354.29 235.09 1358.8 236.26 1363.31 237.45 1367.82 238.64 1372.34 239.84 1376.85 241.05 1381.36 242.27 1385.87 243.49 1390.38 244.72 1394.89 245.95 1399.4 247.19 1403.91 248.43 1408.42 249.67 1412.93 250.92 1417.45 252.17 1421.96 253.43 1426.47 254.69 1430.98 255.94 1435.49 257.2 1440 258.46" stroke="#0080ff" stroke-width="4"></path>
        <path d="M7.5 303.63Q15.79 305.94 24.09 308.25 32.38 310.54 40.67 312.84 48.97 315.1 57.26 317.36 65.55 319.58 73.85 321.81 82.14 323.97 90.43 326.14 98.73 328.25 107.02 330.35 115.31 332.38 123.61 334.41 131.9 336.35 140.19 338.29 148.49 340.14 156.78 341.98" stroke="#ff0080" stroke-width="4"></path>
        <path d="M189.88 348.7Q198.16 350.2 206.44 351.7 214.71 353.07 222.99 354.44 231.27 355.67 239.55 356.9 247.83 357.99 256.1 359.07 264.38 360.01 272.66 360.95" stroke="#4000ff" stroke-width="4"></path>
        <path d="M296.93 363.13Q305.05 363.67 313.17 364.21 321.29 364.59 329.42 364.97 337.54 365.19 345.66 365.41 353.78 365.47 361.9 365.54 370.02 365.44 378.14 365.34 386.27 365.08 394.39 364.82 402.51 364.4 410.63 363.98" stroke="#4000ff" stroke-width="4"></path>
        <path d="M434.6 362.18Q443.1 361.34 451.59 360.5 460.09 359.49 468.58 358.49 477.08 357.33 485.58 356.17 494.07 354.86 502.57 353.55" stroke="#ff00ff" stroke-width="4"></path>
        <path d="M514.17 351.6Q522.34 350.11 530.5 348.63 538.67 347.03 546.83 345.42 555 343.71 563.16 342 571.33 340.18 579.5 338.36 587.66 336.45 595.83 334.54 603.99 332.55 612.16 330.55 620.32 328.49 628.49 326.42" stroke="#ff00ff" stroke-width="4"></path>
        <path d="M647.36 321.49Q654.92 319.46 662.49 317.43 670.06 315.37 677.62 313.31 685.18 311.22 692.75 309.13 700.32 307.03 707.88 304.92 715.44 302.81 723.01 300.7 730.58 298.59 738.14 296.48 745.7 294.38 753.27 292.28" stroke="#4000ff" stroke-width="4"></path>
        <path d="M769.94 287.7Q777.48 285.66 785.02 283.62 792.56 281.62 800.1 279.62 807.63 277.67 815.17 275.72 822.71 273.82 830.25 271.92 837.79 270.09 845.33 268.26 852.87 266.5 860.41 264.74 867.94 263.06 875.48 261.37 883.02 259.78 890.56 258.19 898.1 256.68 905.64 255.18 913.18 253.78 920.72 252.38 928.26 251.09 935.79 249.8 943.33 248.61 950.87 247.43 958.41 246.37 965.95 245.3" stroke="#0080ff" stroke-width="4"></path>
        <path d="M1000.37 241.36Q1008.38 240.68 1016.38 239.99 1024.39 239.45 1032.39 238.91 1040.4 238.53 1048.41 238.15 1056.41 237.92 1064.42 237.69 1072.42 237.61 1080.43 237.54 1088.44 237.62 1096.44 237.7 1104.45 237.94 1112.45 238.18 1120.46 238.57 1128.47 238.96 1136.47 239.51 1144.48 240.05 1152.48 240.75 1160.49 241.45" stroke="#0080ff" stroke-width="4"></path>
        <path d="M1181.01 243.65Q1188.93 244.67 1196.85 245.68 1204.78 246.82 1212.7 247.97 1220.62 249.24 1228.54 250.52 1236.47 251.91 1244.39 253.31 1252.31 254.82 1260.23 256.33 1268.16 257.95 1276.08 259.57 1284 261.29 1291.92 263.01 1299.85 264.82 1307.77 266.63" stroke="#ff0080" stroke-width="4"></path>
        <path d="M1331.18 272.28Q1339.85 274.47 1348.51 276.66 1357.18 278.93 1365.84 281.19 1374.51 283.51 1383.18 285.83 1391.84 288.2 1400.51 290.57" stroke="#ff0080" stroke-width="4"></path>
        <path d="M17.92 349.61Q25.87 351.82 33.82 354.02 41.76 356.21 49.71 358.39 57.66 360.54 65.61 362.69 73.56 364.79 81.5 366.9 89.45 368.95 97.4 371 105.35 372.99 113.3 374.98 121.24 376.9 129.19 378.81 137.14 380.65 145.09 382.48 153.04 384.22 160.98 385.96 168.93 387.61 176.88 389.25" stroke="#8000ff" stroke-width="4"></path>
        <path d="M195.8 392.88Q199.63 393.57 203.47 394.26 207.31 394.92 211.14 395.58 214.98 396.22 218.81 396.85" stroke="#8000ff" stroke-width="4"></path>
        <path d="M255.75 402.11Q256.89 402.25 258.03 402.38 259.18 402.52 260.32 402.66 261.46 402.79 262.6 402.92" stroke="#4000ff" stroke-width="4"></path>
        <path d="M277.76 404.54Q280.72 404.82 283.68 405.1 286.65 405.36 289.61 405.62 292.57 405.86 295.53 406.1" stroke="#4000ff" stroke-width="4"></path>
        <path d="M327.02 407.95Q336.02 408.22 345.01 408.48 354.01 408.54 363 408.61 372 408.48 380.99 408.35 389.99 408.02 398.98 407.69 407.98 407.17 416.97 406.65" stroke="#ff0080" stroke-width="4"></path>
        <path d="M433.53 405.35Q441.89 404.53 450.25 403.72 458.6 402.74 466.96 401.77 475.32 400.65 483.68 399.52 492.03 398.25 500.39 396.98 508.75 395.57 517.11 394.16 525.46 392.62 533.82 391.07 542.18 389.41 550.53 387.74 558.89 385.96 567.25 384.18" stroke="#ff0080" stroke-width="4"></path>
        <path d="M589.99 379Q596.61 377.42 603.22 375.83 609.84 374.2 616.45 372.56 623.07 370.87 629.68 369.19" stroke="#ff00ff" stroke-width="4"></path>
        <path d="M664.43 359.98Q672.08 357.89 679.73 355.8 687.38 353.69 695.03 351.57 702.68 349.44 710.33 347.31 717.98 345.18 725.63 343.04" stroke="#00ffff" stroke-width="4"></path>
        <path d="M765 332.13Q770.84 330.54 776.68 328.95 782.52 327.38 788.35 325.81 794.19 324.26 800.03 322.72" stroke="#8000ff" stroke-width="4"></path>
        <path d="M840.01 312.61Q842.5 312.01 844.99 311.42 847.49 310.82 849.98 310.23 852.47 309.65 854.96 309.07" stroke="#0080ff" stroke-width="4"></path>
        <path d="M871.99 305.22Q879.83 303.54 887.66 301.86 895.5 300.28 903.34 298.71 911.17 297.24 919.01 295.77 926.85 294.41 934.68 293.06 942.52 291.82 950.36 290.58 958.19 289.48 966.03 288.37 973.87 287.39 981.7 286.41 989.54 285.57 997.38 284.73 1005.21 284.03 1013.05 283.33 1020.89 282.77 1028.72 282.21 1036.56 281.8 1044.4 281.39 1052.23 281.12 1060.07 280.86" stroke="#0080ff" stroke-width="4"></path>
        <path d="M1082.81 280.62Q1091.04 280.73 1099.27 280.84 1107.5 281.12 1115.73 281.39 1123.96 281.83 1132.19 282.27 1140.43 282.87 1148.66 283.47 1156.89 284.22 1165.12 284.98 1173.35 285.89 1181.58 286.8 1189.81 287.86 1198.04 288.92" stroke="#8000ff" stroke-width="4"></path>
        <path d="M1219.21 292.06Q1227.03 293.37 1234.85 294.68 1242.67 296.1 1250.49 297.52 1258.31 299.05 1266.13 300.59 1273.95 302.22 1281.77 303.86" stroke="#8000ff" stroke-width="4"></path>
        <path d="M1318.91 312.35Q1325.64 314 1332.36 315.65 1339.09 317.35 1345.82 319.05 1352.55 320.79 1359.27 322.54 1366 324.32 1372.73 326.1 1379.46 327.91 1386.18 329.72 1392.91 331.56 1399.64 333.4 1406.36 335.26 1413.09 337.12 1419.82 338.99 1426.55 340.86 1433.27 342.74 1440 344.62" stroke="#4000ff" stroke-width="4"></path>
        <path d="M20.47 393.4Q28.17 395.53 35.87 397.67 43.57 399.78 51.27 401.89 58.96 403.97 66.66 406.05 74.36 408.08 82.06 410.12 89.76 412.11 97.46 414.09 105.16 416.02 112.86 417.95 120.55 419.81 128.25 421.67 135.95 423.45 143.65 425.23 151.35 426.93 159.05 428.63 166.75 430.23 174.45 431.84 182.14 433.34 189.84 434.85 197.54 436.25 205.24 437.65" stroke="#8000ff" stroke-width="4"></path>
        <path d="M239.48 443.05Q247.19 444.06 254.89 445.08 262.6 445.97 270.31 446.85 278.01 447.61 285.72 448.36 293.42 448.98 301.13 449.59" stroke="#8000ff" stroke-width="4"></path>
        <path d="M312.18 450.3Q319.98 450.68 327.79 451.06 335.59 451.29 343.39 451.52 351.2 451.61 359 451.69 366.8 451.63 374.61 451.56 382.41 451.35 390.21 451.14 398.02 450.78 405.82 450.42 413.62 449.91 421.43 449.41 429.23 448.76 437.03 448.11 444.84 447.32 452.64 446.53" stroke="#ff00ff" stroke-width="4"></path>
        <path d="M479.1 443.24Q487.95 441.93 496.8 440.63 505.65 439.16 514.5 437.69 523.35 436.08 532.2 434.46 541.05 432.71 549.9 430.95 558.75 429.07 567.6 427.18" stroke="#0080ff" stroke-width="4"></path>
        <path d="M607.32 417.91Q614.92 416 622.52 414.1 630.12 412.14 637.72 410.18 645.33 408.17 652.93 406.16 660.53 404.11 668.13 402.05 675.73 399.97 683.33 397.89 690.93 395.78 698.53 393.68 706.14 391.56 713.74 389.44 721.34 387.32 728.94 385.2 736.54 383.08 744.14 380.96 751.74 378.86 759.35 376.76 766.95 374.68 774.55 372.6 782.15 370.56 789.75 368.51" stroke="#8000ff" stroke-width="4"></path>
        <path d="M822.51 360.01Q831.42 357.81 840.33 355.61 849.24 353.51 858.15 351.41 867.06 349.42 875.97 347.42 884.88 345.55 893.79 343.68 902.7 341.94 911.61 340.2" stroke="#8000ff" stroke-width="4"></path>
        <path d="M933.53 336.32Q938.85 335.47 944.17 334.61 949.49 333.81 954.82 333 960.14 332.26 965.46 331.52" stroke="#0080ff" stroke-width="4"></path>
        <path d="M991.45 328.41Q999.06 327.68 1006.66 326.94 1014.27 326.34 1021.88 325.74 1029.48 325.28 1037.09 324.81 1044.7 324.48 1052.31 324.16 1059.91 323.97 1067.52 323.79 1075.13 323.74 1082.73 323.7 1090.34 323.79 1097.95 323.89 1105.55 324.12 1113.16 324.36 1120.77 324.74 1128.38 325.11 1135.98 325.63 1143.59 326.14" stroke="#0080ff" stroke-width="4"></path>
        <path d="M1183.55 330.11Q1186.64 330.5 1189.73 330.89 1192.82 331.3 1195.91 331.7 1199 332.13 1202.09 332.56" stroke="#8000ff" stroke-width="4"></path>
        <path d="M1214.65 334.42Q1223.34 335.84 1232.03 337.26 1240.72 338.83 1249.41 340.39 1258.09 342.1 1266.78 343.8 1275.47 345.62 1284.16 347.45 1292.85 349.39 1301.54 351.34" stroke="#00ffff" stroke-width="4"></path>
        <path d="M1318.04 355.22Q1321.07 355.95 1324.09 356.69 1327.12 357.43 1330.14 358.18 1333.16 358.93 1336.19 359.68" stroke="#0080ff" stroke-width="4"></path>
        <path d="M1350.71 363.38Q1352.95 363.97 1355.19 364.55 1357.43 365.13 1359.68 365.72 1361.92 366.31 1364.16 366.9" stroke="#0080ff" stroke-width="4"></path>
        <path d="M1375.6 369.94Q1381.38 371.51 1387.16 373.07 1392.94 374.65 1398.71 376.23 1404.49 377.82 1410.27 379.41" stroke="#4000ff" stroke-width="4"></path>
        <path d="M16.31 435.32Q23.87 437.42 31.43 439.52 38.99 441.6 46.55 443.68 54.11 445.73 61.67 447.79 69.24 449.8 76.8 451.82 84.36 453.79 91.92 455.76 99.48 457.67 107.04 459.59" stroke="#0080ff" stroke-width="4"></path>
        <path d="M124.5 463.85Q132.34 465.69 140.19 467.52 148.03 469.27 155.88 471.02 163.72 472.67 171.57 474.33 179.41 475.88 187.26 477.43 195.1 478.88 202.95 480.32 210.79 481.65 218.64 482.98 226.48 484.18 234.33 485.39 242.17 486.46 250.02 487.54 257.87 488.48 265.71 489.43 273.55 490.24 281.4 491.04 289.25 491.71 297.09 492.37 304.93 492.89 312.78 493.42" stroke="#8000ff" stroke-width="4"></path>
        <path d="M337.98 494.47Q341.21 494.55 344.44 494.62 347.67 494.67 350.91 494.72 354.14 494.74 357.37 494.77" stroke="#0080ff" stroke-width="4"></path>
        <path d="M378.61 494.56Q386.45 494.31 394.28 494.05 402.12 493.65 409.96 493.25 417.79 492.71 425.63 492.16 433.47 491.47 441.3 490.78 449.14 489.95 456.98 489.12 464.82 488.16 472.65 487.19 480.49 486.09 488.33 485 496.16 483.77 504 482.55" stroke="#4000ff" stroke-width="4"></path>
        <path d="M515.95 480.52Q523.9 479.06 531.86 477.6 539.81 476.03 547.76 474.47 555.72 472.79 563.67 471.12" stroke="#ff0080" stroke-width="4"></path>
        <path d="M601.62 462.38Q609.63 460.4 617.63 458.42 625.63 456.37 633.64 454.32 641.64 452.21 649.65 450.11 657.65 447.95 665.66 445.8 673.66 443.61 681.67 441.42" stroke="#00ffff" stroke-width="4"></path>
        <path d="M716.8 431.66Q725.26 429.3 733.73 426.94 742.19 424.59 750.65 422.23 759.12 419.91 767.58 417.58" stroke="#00ffff" stroke-width="4"></path>
        <path d="M783.99 413.13Q789.73 411.6 795.48 410.07 801.22 408.57 806.97 407.06 812.71 405.59 818.46 404.11" stroke="#8000ff" stroke-width="4"></path>
        <path d="M838.58 399.11Q846.43 397.25 854.29 395.38 862.14 393.59 870 391.81 877.85 390.12 885.7 388.42 893.56 386.83 901.41 385.24 909.27 383.75 917.12 382.26 924.97 380.89 932.83 379.52 940.68 378.27 948.54 377.01 956.39 375.89 964.24 374.76 972.1 373.77 979.95 372.77 987.81 371.91 995.66 371.05" stroke="#8000ff" stroke-width="4"></path>
        <path d="M1031.6 368.19Q1039.52 367.8 1047.44 367.41 1055.36 367.18 1063.29 366.94 1071.21 366.85 1079.13 366.77 1087.05 366.84 1094.97 366.91 1102.89 367.13 1110.82 367.35 1118.74 367.72 1126.66 368.09 1134.58 368.61 1142.5 369.13 1150.42 369.8 1158.35 370.47 1166.27 371.29 1174.19 372.1" stroke="#ff0080" stroke-width="4"></path>
        <path d="M1192.89 374.38Q1201.68 375.62 1210.48 376.86 1219.27 378.27 1228.07 379.67 1236.86 381.22 1245.66 382.77" stroke="#8000ff" stroke-width="4"></path>
        <path d="M1261.34 385.78Q1268.21 387.18 1275.08 388.59 1281.95 390.07 1288.83 391.55 1295.7 393.1 1302.57 394.65 1309.44 396.27 1316.31 397.88 1323.18 399.56 1330.06 401.23 1336.93 402.96 1343.8 404.69 1350.67 406.46 1357.54 408.24 1364.41 410.05 1371.28 411.87 1378.16 413.72 1385.03 415.56 1391.9 417.44 1398.77 419.32 1405.64 421.21 1412.51 423.11 1419.39 425.02 1426.26 426.93 1433.13 428.85 1440 430.77" stroke="#ff0080" stroke-width="4"></path>
        <path d="M30.68 482.39Q38.51 484.54 46.33 486.7 54.16 488.82 61.98 490.95 69.81 493.03 77.64 495.11 85.46 497.15 93.29 499.18 101.12 501.16 108.94 503.14 116.77 505.04 124.59 506.95 132.42 508.78 140.25 510.61 148.07 512.36 155.9 514.1 163.72 515.75 171.55 517.4" stroke="#ff0080" stroke-width="4"></path>
        <path d="M203.92 523.57Q211.88 524.91 219.85 526.25 227.81 527.46 235.77 528.67 243.74 529.75 251.7 530.83 259.67 531.78 267.63 532.72 275.59 533.52 283.56 534.32 291.52 534.97 299.48 535.63 307.45 536.13 315.41 536.64" stroke="#0080ff" stroke-width="4"></path>
        <path d="M345.11 537.71Q352.94 537.78 360.77 537.85 368.61 537.76 376.44 537.68 384.27 537.45 392.1 537.22 399.93 536.84 407.77 536.46 415.6 535.94 423.43 535.41 431.26 534.74 439.1 534.07 446.93 533.26 454.76 532.45 462.59 531.51 470.42 530.56 478.26 529.48 486.09 528.4 493.92 527.2 501.75 525.99 509.58 524.66 517.42 523.33 525.25 521.89 533.08 520.45" stroke="#ff0080" stroke-width="4"></path>
        <path d="M544.97 518.11Q553.35 516.36 561.74 514.61 570.12 512.75 578.5 510.9 586.88 508.94 595.26 506.98 603.65 504.94 612.03 502.89 620.41 500.77 628.8 498.65 637.18 496.46 645.56 494.27 653.94 492.03 662.33 489.78 670.71 487.5 679.09 485.21" stroke="#0080ff" stroke-width="4"></path>
        <path d="M711.28 476.28Q719.59 473.96 727.9 471.64 736.2 469.33 744.51 467.01 752.82 464.72 761.13 462.42" stroke="#0080ff" stroke-width="4"></path>
        <path d="M789.05 454.85Q797.03 452.75 805.01 450.65 812.98 448.6 820.96 446.56 828.94 444.57 836.92 442.59 844.9 440.69 852.87 438.78 860.85 436.96 868.83 435.15" stroke="#8000ff" stroke-width="4"></path>
        <path d="M900.94 428.41Q909.57 426.77 918.21 425.14 926.84 423.65 935.47 422.16 944.11 420.81 952.74 419.46 961.37 418.27 970 417.08 978.64 416.05 987.27 415.01" stroke="#0080ff" stroke-width="4"></path>
        <path d="M1007.72 413Q1015.52 412.4 1023.33 411.79 1031.13 411.33 1038.93 410.87 1046.73 410.56 1054.54 410.24 1062.34 410.07 1070.14 409.91 1077.95 409.89 1085.75 409.87 1093.55 410 1101.35 410.12 1109.16 410.4 1116.96 410.68 1124.76 411.1 1132.56 411.52 1140.37 412.09 1148.17 412.66" stroke="#ff00ff" stroke-width="4"></path>
        <path d="M1179.87 415.83Q1183.05 416.21 1186.24 416.6 1189.42 417.01 1192.6 417.42 1195.79 417.85 1198.97 418.28" stroke="#8000ff" stroke-width="4"></path>
        <path d="M1230.78 423.2Q1238.57 424.59 1246.37 425.98 1254.16 427.48 1261.96 428.98 1269.76 430.58 1277.55 432.19 1285.35 433.89 1293.14 435.58 1300.93 437.37 1308.73 439.16" stroke="#4000ff" stroke-width="4"></path>
        <path d="M1326.36 443.4Q1327.34 443.64 1328.32 443.88 1329.3 444.12 1330.27 444.36 1331.25 444.6 1332.23 444.85" stroke="#8000ff" stroke-width="4"></path>
        <path d="M1367.47 453.93Q1372 455.14 1376.54 456.35 1381.07 457.57 1385.6 458.8 1390.14 460.03 1394.67 461.27 1399.2 462.52 1403.74 463.76 1408.27 465.01 1412.8 466.27 1417.33 467.53 1421.87 468.79 1426.4 470.05 1430.93 471.32 1435.47 472.58 1440 473.85" stroke="#8000ff" stroke-width="4"></path>
        <path d="M49.12 530.54Q51.62 531.21 54.11 531.89 56.61 532.57 59.11 533.25 61.6 533.92 64.1 534.59" stroke="#ff0080" stroke-width="4"></path>
        <path d="M86.92 540.62Q95.06 542.7 103.19 544.78 111.33 546.79 119.47 548.79 127.61 550.72 135.74 552.65 143.88 554.49 152.02 556.33" stroke="#4000ff" stroke-width="4"></path>
        <path d="M168.68 559.89Q176.35 561.43 184.01 562.96 191.68 564.4 199.34 565.83 207.01 567.16 214.68 568.48 222.34 569.69 230.01 570.9 237.68 571.99 245.34 573.08 253.01 574.04 260.67 575.01 268.34 575.84 276.01 576.67 283.67 577.37 291.34 578.07 299.01 578.64 306.67 579.2 314.34 579.62 322 580.05 329.67 580.33 337.34 580.61 345 580.75 352.67 580.89" stroke="#8000ff" stroke-width="4"></path>
        <path d="M372.69 580.82Q373.52 580.81 374.36 580.8 375.19 580.78 376.02 580.77 376.86 580.75 377.69 580.73" stroke="#8000ff" stroke-width="4"></path>
        <path d="M400.93 579.91Q408.75 579.44 416.57 578.98 424.39 578.38 432.22 577.77 440.04 577.02 447.86 576.28 455.68 575.39 463.5 574.51 471.32 573.49 479.14 572.47 486.97 571.32 494.79 570.17 502.61 568.9 510.43 567.62" stroke="#ff0080" stroke-width="4"></path>
        <path d="M547.94 560.58Q555.96 558.89 563.99 557.2 572.01 555.41 580.04 553.62 588.06 551.74 596.09 549.86 604.11 547.9 612.14 545.94 620.16 543.91 628.19 541.88 636.21 539.79 644.23 537.7 652.26 535.55 660.28 533.41 668.31 531.23 676.33 529.04 684.36 526.83 692.38 524.62 700.41 522.38 708.43 520.15 716.46 517.91 724.48 515.67" stroke="#ff0080" stroke-width="4"></path>
        <path d="M750.99 508.3Q758.56 506.21 766.12 504.13 773.69 502.07 781.26 500.02 788.82 498 796.39 495.98 803.96 494.01 811.52 492.04 819.09 490.12 826.66 488.2 834.23 486.35 841.79 484.49 849.36 482.71 856.93 480.92 864.49 479.21 872.06 477.51" stroke="#8000ff" stroke-width="4"></path>
        <path d="M892.12 473.25Q900.08 471.68 908.04 470.11 916 468.65 923.96 467.19 931.93 465.85 939.89 464.52 947.85 463.3 955.81 462.09 963.77 461.01 971.73 459.93 979.69 458.99 987.65 458.05 995.61 457.25 1003.58 456.45 1011.54 455.79 1019.5 455.14 1027.46 454.64 1035.42 454.13" stroke="#ff0080" stroke-width="4"></path>
        <path d="M1061.81 453.12Q1069.96 453.02 1078.11 452.93 1086.27 452.99 1094.42 453.05 1102.57 453.27 1110.72 453.5 1118.88 453.88 1127.03 454.27 1135.18 454.81 1143.33 455.35 1151.48 456.05 1159.64 456.75 1167.79 457.6 1175.94 458.45 1184.09 459.45 1192.25 460.45 1200.4 461.59 1208.55 462.73 1216.7 464.01 1224.86 465.29 1233.01 466.7 1241.16 468.11" stroke="#00ffff" stroke-width="4"></path>
        <path d="M1278.72 475.51Q1286.97 477.32 1295.23 479.13 1303.48 481.04 1311.74 482.95 1319.99 484.94 1328.25 486.94" stroke="#0080ff" stroke-width="4"></path>
        <path d="M1365.96 496.6Q1375.66 499.21 1385.35 501.81 1395.05 504.46 1404.75 507.12 1414.44 509.81 1424.14 512.5" stroke="#ff00ff" stroke-width="4"></path>
    </g>
    <defs>
        <clipPath id="SvgjsClipPath1000">
            <rect width="1440" height="560" x="0" y="0"></rect>
        </clipPath>
    </defs>
</svg>